<svg width="179" height="179" fill="none" xmlns="http://www.w3.org/2000/svg"><circle cx="89.5" cy="89.5" r="89.5" fill="#B2B2BB" fill-opacity=".18"/><g clip-path="url(#clip0)"><path d="M127.727 92.558s1.141-7.674 5.135-6.537c3.994.853 3.709 12.505 0 17.905-3.709 5.684-5.706 3.979-5.706 3.979l.571-15.347zm-78.739 0s-1.14-7.674-5.135-6.537c-3.994.853-3.709 12.505 0 17.905 3.709 5.684 5.706 3.979 5.706 3.979l-.57-15.347z" fill="#fff"/><path d="M130.01 76.926l-13.123-23.021-28.529 9.379-28.528-9.38-13.124 23.022s-1.426 30.979 6.562 44.052c12.267 20.748 28.243 22.737 35.09 22.737 6.847 0 22.823-1.989 35.09-22.737 7.988-13.073 6.562-44.052 6.562-44.052z" fill="#fff"/><path d="M124.591 54.189c-10.271-14.21-23.679-17.053-32.238-17.621v23.874c10.841.284 14.55 1.136 22.253 2.842 8.843 1.705 12.837 13.642 12.267 20.747-.856 8.242-1.712 13.074-2.568 16.768-.856 3.695 3.424 5.116 3.424 5.116 5.135-26.431 6.846-38.368-3.138-51.726zM84.65 36.568c-8.56.568-23.109 3.695-31.667 16.768-7.988 12.506-11.697 20.463-3.424 52.295 0 0 4.28-1.421 3.424-5.116-.856-3.695-1.712-8.526-2.568-16.768-.57-7.105 3.424-18.758 12.267-20.748 7.703-1.42 11.412-2.557 21.967-2.842v-23.59z" fill="#D3D3DC"/><path d="M112.893 62.715S87.788 81.474 44.995 81.474c0 0-2.853-22.168 16.261-36.947 18.83-14.495 49.64-9.095 59.91 5.4 0 0-5.42 9.379-8.273 12.79z" fill="#D3D3DC"/></g><defs><clipPath id="clip0"><path fill="#fff" transform="translate(41 36)" d="M0 0h95v108H0z"/></clipPath></defs></svg>