<svg width="179" height="179" fill="none" xmlns="http://www.w3.org/2000/svg"><circle cx="89.5" cy="89.5" r="89.5" fill="#B2B2BB" fill-opacity=".18"/><g clip-path="url(#clip0)"><path d="M128.094 57.192L89.44 53.383h-1.17l-38.362 2.93s-8.785 27.535-4.978 71.182c.293 3.222 2.636 6.151 6.15 6.737 8.492 1.758 25.184 4.687 37.19 4.687h1.17c12.006-.293 28.991-3.222 37.483-4.687 3.221-.586 5.564-3.222 6.15-6.444 4.978-40.718-4.979-70.596-4.979-70.596z" fill="#D3D3DC"/><path d="M127.802 87.363s1.171-7.616 5.271-6.737c4.099.879 3.807 12.596 0 18.161-3.807 5.566-5.857 3.809-5.857 3.809l.586-15.233zm-77.602 0s-1.172-7.616-5.271-6.737c-4.1.879-3.807 12.596 0 18.161 3.806 5.566 5.856 3.809 5.856 3.809L50.2 87.363z" fill="#fff"/><path d="M128.972 72.131l-17.863-9.373-22.255 3.222-22.255-3.222-17.863 9.373s-1.465 33.394 6.442 47.455C67.477 141.848 81.826 148 88.854 148c7.028 0 21.377-5.859 33.676-28.414 7.907-14.061 6.442-47.455 6.442-47.455z" fill="#fff"/><path d="M129.264 92.05s-2.05.294-2.343-4.393c0-4.98-1.171-21.384-17.277-25.192l13.178-12.596s11.713 6.444 7.32 42.182h-.878z" fill="#D3D3DC"/><path d="M124.872 52.798s-1.171 14.06-25.476 19.626c-40.412 9.081-46.268 9.081-50.368 30.172 0 0-17.863-70.596 39.825-70.596 0 0 27.234 1.172 36.019 20.798z" fill="#D3D3DC"/></g><defs><clipPath id="clip0"><path fill="#fff" transform="translate(42 32)" d="M0 0h94v116H0z"/></clipPath></defs></svg>