<svg width="179" height="179" fill="none" xmlns="http://www.w3.org/2000/svg"><circle cx="89.5" cy="89.5" r="89.5" fill="#B2B2BB" fill-opacity=".18"/><g clip-path="url(#clip0)"><path d="M145.688 57.192c-9.396-23.272-35.317-16.161-42.121-2.586-.324 0-.324.324-.648.647 2.592 1.616 4.536 4.202 4.536 7.758 10.045-1.94 14.257 12.282 13.285 20.686-1.296 8.728-4.86 40.404 12.636 47.192 13.608 5.172 24.949-4.202 24.949-4.202-32.077-10.02-3.24-46.222-12.637-69.495zm-114.052.001c9.397-23.273 35.317-16.162 42.122-2.586 0 .323.324.323.324.647-2.592 1.616-4.536 4.202-4.536 7.757C59.5 61.071 55.289 75.294 56.26 83.698c1.296 8.727 4.86 40.404-12.636 47.192C30.34 136.062 19 126.688 19 126.688c32.077-10.02 2.916-46.222 12.636-69.495z" fill="#D3D3DC"/><path d="M126.248 89.515s.972-7.435 4.86-6.465c3.888.97 3.564 11.96 0 17.455-3.564 5.495-5.508 3.878-5.508 3.878l.648-14.868zm-73.227 0s-.972-7.435-5.184-6.465c-3.888.97-3.564 11.96 0 17.455 3.564 5.495 5.508 3.878 5.508 3.878l-.324-14.868z" fill="#fff"/><path d="M127.543 77.879l-16.201-10.344-21.708 4.849L69.22 70.12l-17.496 7.758S50.429 106 57.88 117.959C69.869 137.03 82.83 138 89.31 138s19.44-.97 31.429-20.041c8.1-11.959 6.804-40.08 6.804-40.08z" fill="#fff"/><path d="M128.514 96.303s-1.944.323-2.268-4.202c0-4.525-1.296-19.394-16.849-22.626l12.961-11.313s11.664 5.818 7.128 38.141h-.972z" fill="#D3D3DC"/><path d="M123.654 60.748s-.972 12.605-24.3 17.777c-38.558 8.404-44.39 8.081-47.954 27.152 0 0-17.173-63.677 37.909-63.677 0 0 25.921.97 34.345 18.748z" fill="#D3D3DC"/></g><defs><clipPath id="clip0"><path fill="#fff" transform="translate(19 42)" d="M0 0h139v96H0z"/></clipPath></defs></svg>