<svg width="179" height="179" fill="none" xmlns="http://www.w3.org/2000/svg"><circle cx="89.5" cy="89.5" r="89.5" fill="#B2B2BB" fill-opacity=".18"/><path d="M91.9 59.268H51.1v53.545c0 10.228 18 32.488 38.4 32.488s38.4-22.26 38.4-32.488V59.268h-36z" fill="#fff"/><path d="M127.299 88.749s1.2-8.122 5.4-6.919c4.2 1.203 3.9 13.236 0 18.951-3.9 6.016-6.3 4.212-6.3 4.212M51.7 88.749s-1.2-8.122-5.4-6.919c-4.2 1.203-3.9 13.236 0 18.951 3.9 6.016 6.3 4.212 6.3 4.212" fill="#fff"/><path d="M124.299 51.748c-10.2-13.837-23.1-16.845-31.5-17.447v23.463c10.5.301 14.1 1.204 21.6 2.708 8.4 1.805 12.6 13.235 12 20.154-.6 8.122-1.5 12.935-2.4 16.244-.9 3.61 3.3 5.114 3.3 5.114 5.1-25.268 6.6-37-3-50.236zm-39-17.146c-8.4.602-22.8 3.309-30.9 16.244-7.8 12.634-11.7 20.154-3.3 51.439 0 0 4.2-1.504 3.3-5.114-.9-3.61-1.8-8.122-2.4-16.244-.6-6.918 3.3-18.65 12-20.154 7.5-1.504 11.1-2.407 21.3-2.708V34.602z" fill="#D3D3DC"/><path d="M112.6 60.171S88 78.521 46.3 78.521c0 0-3-21.659 15.9-36.399 18.3-13.837 48.6-8.723 58.8 5.415 0 0-5.4 9.325-8.4 12.634z" fill="#D3D3DC"/></svg>