<svg width="26" height="28" fill="none" xmlns="http://www.w3.org/2000/svg"><path d="M21.572 2.995h-1.169v-1.01C20.403.871 19.483 0 18.384 0c-1.098 0-2.019.87-2.019 1.985v1.01h-6.73v-1.01C9.635.905 8.749 0 7.615 0 6.483 0 5.598.87 5.598 1.985v1.01h-1.17C1.985 2.995 0 4.945 0 7.348v16.299C0 26.05 1.984 28 4.428 28h17.144C24.016 28 26 26.05 26 23.647V7.348c0-2.403-1.984-4.353-4.428-4.353zm2.657 20.652c0 1.428-1.204 2.612-2.657 2.612H4.428c-1.453 0-2.657-1.184-2.657-2.612V7.348c0-1.428 1.204-2.612 2.657-2.612h17.144c1.453 0 2.657 1.184 2.657 2.612v16.299z" fill="#007EEC"/><path d="M9.777 7.418H5.49c-.602 0-1.062.453-1.062 1.045v4.214c0 .592.46 1.044 1.062 1.044h4.287c.602 0 1.062-.452 1.062-1.044V8.463c0-.592-.496-1.045-1.062-1.045zm10.733.348h-4.251c-.602 0-1.063.453-1.063 1.045v4.214c0 .592.46 1.045 1.063 1.045h4.286c.602 0 1.063-.453 1.063-1.045V8.81a1.088 1.088 0 00-1.099-1.045zM9.777 16.96H5.49c-.602 0-1.062.453-1.062 1.045v4.214c0 .592.46 1.045 1.062 1.045h4.287c.602 0 1.062-.453 1.062-1.045v-4.214c0-.592-.496-1.045-1.062-1.045zm10.733.348h-4.251c-.602 0-1.063.453-1.063 1.045v4.214c0 .592.46 1.045 1.063 1.045h4.286c.602 0 1.063-.453 1.063-1.045v-4.214a1.088 1.088 0 00-1.099-1.045z" fill="#007EEC"/></svg>