<svg version="1.1" id="Layer_1" xmlns="http://www.w3.org/2000/svg" x="0" y="0" viewBox="0 0 40 40" xml:space="preserve"><style>.st0{fill:#007eec}</style><path class="st0" d="M19.8 33.8c-3.7 0-7.3-1.5-9.9-4.1-2.6-2.6-4.1-6.2-4.1-9.9s1.5-7.3 4.1-9.9c5.5-5.5 14.3-5.5 19.8 0 2.6 2.6 4.1 6.2 4.1 9.9s-1.5 7.3-4.1 9.9c-2.6 2.6-6.2 4.1-9.9 4.1zm0-26c-3.1 0-6.1 1.2-8.5 3.5-2.3 2.3-3.5 5.3-3.5 8.5S9 26 11.3 28.3s5.3 3.5 8.5 3.5 6.2-1.2 8.5-3.5 3.5-5.3 3.5-8.5-1.2-6.2-3.5-8.5c-2.4-2.3-5.4-3.5-8.5-3.5z"/><path transform="rotate(-45.001 19.799 19.8)" class="st0" d="M11.8 18.8h16v2h-16z"/><path transform="rotate(-45.001 19.798 19.8)" class="st0" d="M18.8 11.8h2v16h-2z"/></svg>