<svg width="23" height="27" fill="none" xmlns="http://www.w3.org/2000/svg"><path d="M21.625 27H3.485a.422.422 0 01-.422-.422V.422A.422.422 0 013.483 0h13.78a.42.42 0 01.298.124l4.361 4.361c.08.079.124.186.124.298v21.795a.422.422 0 01-.422.422z" fill="url(#paint0_linear)"/><path d="M.953 13.9l1.688-.746 1.177 1.807H.953V13.9z" fill="url(#paint1_linear)"/><path d="M21.203 27H3.063a.422.422 0 01-.422-.422V.422A.422.422 0 013.062 0h13.954l4.609 4.609v21.97a.421.421 0 01-.422.421z" fill="url(#paint2_linear)"/><path d="M17.017 0v4.187a.422.422 0 00.422.422h4.186l-2.067-2.49L17.017 0z" fill="url(#paint3_linear)"/><path d="M17.416 22.148H1.7a.747.747 0 01-.747-.746v-6.757h16.463a.747.747 0 01.746.747v6.01a.747.747 0 01-.746.746z" fill="url(#paint4_linear)"/><path d="M2.64 13.154H1.7a.745.745 0 100 1.491h.942v-1.491z" fill="url(#paint5_linear)"/><path d="M4.079 16.951a.366.366 0 01.366-.366 8.224 8.224 0 011.66.069 1.367 1.367 0 01.893.92c.086.278.126.567.119.857.005.262-.032.522-.111.771a1.321 1.321 0 01-.903.929 8.81 8.81 0 01-1.658.076.366.366 0 01-.366-.366v-2.89zm.732.476v1.94c0 .327.431.208.546.23.148.004.296-.008.442-.035a.626.626 0 00.487-.501 2.36 2.36 0 00.074-.664 2.168 2.168 0 00-.074-.645.703.703 0 00-.546-.522 4.87 4.87 0 00-.7-.034.23.23 0 00-.23.23zm2.779.993a1.905 1.905 0 01.502-1.427 1.62 1.62 0 011.25-.47 1.702 1.702 0 011.281.497 1.906 1.906 0 01.481 1.382 1.898 1.898 0 01-.477 1.373 1.689 1.689 0 01-1.276.496 1.706 1.706 0 01-1.285-.494 1.872 1.872 0 01-.477-1.358zm.753-.026c-.024.336.077.668.284.933a.978.978 0 001.44.003 1.38 1.38 0 00.28-.945 1.36 1.36 0 00-.273-.929 1.011 1.011 0 00-1.454.004 1.367 1.367 0 00-.277.934zm5.991.59a.367.367 0 01.219.514c-.092.19-.227.355-.393.485a1.707 1.707 0 01-2.15-.206 1.89 1.89 0 01-.463-1.35 1.983 1.983 0 01.467-1.405 1.603 1.603 0 011.229-.5c.397-.017.786.124 1.08.393.068.065.128.138.178.218a.366.366 0 11-.624.38.718.718 0 00-.176-.204.768.768 0 00-.495-.164.825.825 0 00-.654.29c-.191.273-.28.604-.251.936-.032.345.055.69.247.98a.801.801 0 00.643.291.732.732 0 00.501-.185.835.835 0 00.2-.277.368.368 0 01.442-.196z" fill="#fff"/><defs><linearGradient id="paint0_linear" x1="12.555" y1="-13.495" x2="12.555" y2="-12.412" gradientUnits="userSpaceOnUse"><stop stop-color="#F3F7FF"/><stop offset=".99" stop-color="#B5D1FF"/></linearGradient><linearGradient id="paint1_linear" x1="2.386" y1="12.846" x2="2.386" y2="50.498" gradientUnits="userSpaceOnUse"><stop stop-color="#048AC4"/><stop offset="1" stop-color="#35489B"/></linearGradient><linearGradient id="paint2_linear" x1="638.617" y1="-146.583" x2="638.617" y2="4157.38" gradientUnits="userSpaceOnUse"><stop stop-color="#F3F7FF"/><stop offset=".99" stop-color="#B5D1FF"/></linearGradient><linearGradient id="paint3_linear" x1="249.924" y1="-107.974" x2="249.924" y2="-18.43" gradientUnits="userSpaceOnUse"><stop stop-color="#F3F7FF"/><stop offset=".99" stop-color="#B5D1FF"/></linearGradient><linearGradient id="paint4_linear" x1="472.414" y1="258.643" x2="472.414" y2="652.08" gradientUnits="userSpaceOnUse"><stop stop-color="#048AC4"/><stop offset="1" stop-color="#35489B"/></linearGradient><linearGradient id="paint5_linear" x1="16.141" y1="37.494" x2="16.141" y2="78.265" gradientUnits="userSpaceOnUse"><stop stop-color="#048AC4"/><stop offset="1" stop-color="#35489B"/></linearGradient></defs></svg>