<svg width="19" height="16" fill="none" xmlns="http://www.w3.org/2000/svg"><path d="M18.015 4.375H.985C.443 4.375 0 3.957 0 3.447V1.546C0 .696.739 0 1.642 0h15.716C18.26 0 19 .696 19 1.546v1.901c0 .51-.435.928-.985.928zm-6.027 5.812H7.012c-.23 0-.41-.17-.41-.386V5.534c0-.216.18-.386.41-.386h4.976c.23 0 .41.17.41.386v4.267c0 .209-.18.386-.41.386zm-6.602 0H.411c-.23 0-.411-.17-.411-.386V5.534c0-.216.18-.386.41-.386h4.976c.23 0 .41.17.41.386v4.267c0 .209-.188.386-.41.386zm13.204 0h-4.976c-.23 0-.41-.17-.41-.386V5.534c0-.216.18-.386.41-.386h4.976c.23 0 .41.17.41.386v4.267c0 .209-.18.386-.41.386zM11.988 16H7.012c-.23 0-.41-.17-.41-.386v-4.267c0-.217.18-.387.41-.387h4.976c.23 0 .41.17.41.387v4.267c0 .216-.18.386-.41.386zm-6.602 0H.411C.18 16 0 15.83 0 15.614v-4.267c0-.217.18-.387.41-.387h4.976c.23 0 .41.17.41.387v4.267c0 .216-.188.386-.41.386zm13.204 0h-4.976c-.23 0-.41-.17-.41-.386v-4.267c0-.217.18-.387.41-.387h4.976c.23 0 .41.17.41.387v4.267c0 .216-.18.386-.41.386z" fill="#808A9E"/></svg>