<svg data-name="Слой 1" xmlns="http://www.w3.org/2000/svg" xmlns:xlink="http://www.w3.org/1999/xlink" viewBox="0 0 49 49"><defs><linearGradient id="a" x1="7.32" y1="-209.67" x2="44.18" y2="-209.67" gradientTransform="matrix(1 0 0 -1 0 -190.5)" gradientUnits="userSpaceOnUse"><stop offset="0" stop-color="#0189f0"/><stop offset="1" stop-color="#0069e6"/></linearGradient><linearGradient id="b" x1="0" y1="-215" x2="49" y2="-215" xlink:href="#a"/></defs><path d="M44.22 28.63l-2.5 1.42L7.94 10.57a1.16 1.16 0 01-.42-1.67 1.17 1.17 0 011.68-.42z" fill="url(#a)"/><path d="M47.82 22.45L25.67 9.66 12 1.71A8.07 8.07 0 000 8.65v31.77a7.92 7.92 0 0011.87 6.85l4.68-2.67 9.2-5.27 12.71-7.27L6.27 13.5A4.62 4.62 0 014.6 7.23a4.56 4.56 0 016.27-1.75l36.61 21.15.26-.17a2.26 2.26 0 00.08-4.01z" fill="url(#b)"/></svg>