<svg width="17" height="22" fill="none" xmlns="http://www.w3.org/2000/svg"><path d="M4.254 17.46c-.272 1.858.602 3.942 1.057 4.54-9.816-5.315-3.306-15.1-1.807-15.98-.783 1.02-.817 5.138 0 5.666-.17-1.372.375-3.73 1.807-5.068C6.742 5.28 6.913 2.006 5.958 0c4.976 2.957 6.203 6.9 6.033 9.891.818-.422 1.26-1.936 1.09-2.992 7.055 9.61-.136 14.221-1.567 15.101 1.227-3.59.068-5.245-.341-5.42 0 .844-.954 1.9-1.67 2.006 1.363-4.541-1.67-7.216-2.795-7.85.682 3.626-2.113 4.4-2.454 6.723z" fill="#fff"/></svg>