<svg width="12" height="12" fill="none" xmlns="http://www.w3.org/2000/svg"><path d="M10.737 5.684H12C12 2.444 9.554 0 6.31 0v1.263c2.565 0 4.427 1.859 4.427 4.42z" fill="#007EEC"/><path d="M6.316 3.79c1.328 0 1.895.566 1.895 1.894h1.263c0-2.037-1.121-3.158-3.158-3.158V3.79zm2.161 3.437a.632.632 0 00-.878.027L6.087 8.81c-.364-.07-1.095-.298-1.848-1.049-.753-.753-.98-1.487-1.048-1.848L4.744 4.4a.632.632 0 00.027-.878L2.437.956A.632.632 0 001.56.9L.189 2.076a.632.632 0 00-.184.41c-.01.158-.19 3.898 2.71 6.8C5.245 11.814 8.415 12 9.287 12c.128 0 .206-.004.227-.005a.627.627 0 00.41-.184l1.174-1.371a.632.632 0 00-.054-.879L8.477 7.227z" fill="#007EEC"/></svg>