<svg width="22" height="22" fill="none" xmlns="http://www.w3.org/2000/svg"><path d="M21.41 9.567L12.433.593A2.009 2.009 0 0011.002 0C10.46 0 9.953.21 9.57.593L.598 9.563l-.009.009a2.025 2.025 0 001.35 3.45c.021 0 .043.004.064.004h.357v6.603A2.374 2.374 0 004.732 22h3.511a.644.644 0 00.645-.644v-5.181c0-.598.485-1.083 1.082-1.083h2.072c.597 0 1.083.485 1.083 1.083v5.176c0 .357.288.645.644.645h3.507a2.374 2.374 0 002.372-2.372v-6.603h.331c.542 0 1.049-.21 1.431-.593a2.03 2.03 0 000-2.86z" fill="#007EEC"/></svg>