<svg width="179" height="179" fill="none" xmlns="http://www.w3.org/2000/svg"><circle cx="89.5" cy="89.5" r="89.5" fill="#D1D1E1" fill-opacity=".18"/><mask id="a" maskUnits="userSpaceOnUse" x="0" y="0" width="179" height="179"><circle cx="89.5" cy="89.5" r="89.5" fill="#D1D1E1"/></mask><g mask="url(#a)" fill="#D3D3DB"><path d="M89.688 127.066c25.811 0 46.734-20.834 46.734-46.533 0-25.7-20.923-46.533-46.734-46.533-25.81 0-46.733 20.834-46.733 46.533s20.923 46.533 46.733 46.533z"/><path d="M152 142.577C152 176.701 124.583 204 90.312 204 56.04 204 28 176.701 28 142.577s27.417 0 61.688 0c34.272 0 62.312-34.124 62.312 0z"/></g></svg>