<svg width="32" height="31" fill="none" xmlns="http://www.w3.org/2000/svg"><path d="M28.158 18.334l-1.597.905L5.057 6.836c-.373-.213-.533-.692-.266-1.064.213-.373.692-.533 1.064-.267l22.303 12.829z" fill="url(#paint0_linear)"/><path d="M30.447 14.395L16.342 6.25 7.665 1.194C4.258-.722 0 1.726 0 5.612v20.227c0 3.886 4.205 6.281 7.559 4.365l2.98-1.703 5.856-3.354 8.09-4.63L3.993 8.698C2.608 7.901 2.13 6.091 2.928 4.707A2.913 2.913 0 016.92 3.589l23.314 13.467.16-.106c1.065-.532 1.065-2.023.053-2.555z" fill="url(#paint1_linear)"/><defs><linearGradient id="paint0_linear" x1="4.684" y1="12.306" x2="28.152" y2="12.306" gradientUnits="userSpaceOnUse"><stop stop-color="#0189F0"/><stop offset="1" stop-color="#0069E6"/></linearGradient><linearGradient id="paint1_linear" x1="0" y1="15.703" x2="31.199" y2="15.703" gradientUnits="userSpaceOnUse"><stop stop-color="#0189F0"/><stop offset="1" stop-color="#0069E6"/></linearGradient></defs></svg>