<svg width="178" height="33" fill="none" xmlns="http://www.w3.org/2000/svg"><g clip-path="url(#clip0)"><path d="M28.158 20.334l-1.597.905L5.057 8.836c-.373-.213-.533-.692-.266-1.064.213-.373.692-.533 1.064-.267l22.303 12.829z" fill="url(#paint0_linear)"/><path d="M30.447 16.395L16.342 8.25 7.665 3.194C4.258 1.278 0 3.726 0 7.612v20.227c0 3.886 4.205 6.281 7.559 4.365l2.98-1.703 5.856-3.354 8.09-4.63L3.993 10.698C2.608 9.901 2.13 8.091 2.928 6.707A2.913 2.913 0 016.92 5.589l23.314 13.467.16-.106c1.065-.532 1.065-2.023.053-2.555z" fill="url(#paint1_linear)"/><path d="M49.504 17.14H42.21v12.402h-2.66v-14.69h9.954v2.288zm12.668 1.171v11.178H59.67v-1.437c-.425.48-.958.905-1.543 1.171-.64.266-1.278.426-2.023.426-1.49 0-2.662-.426-3.566-1.224-.852-.852-1.278-2.076-1.278-3.726V18.31h2.608v6.068c0 1.012.213 1.757.692 2.236.48.479 1.118.745 1.97.745.905 0 1.65-.266 2.235-.852.533-.585.852-1.437.852-2.501V18.31h2.555zm14.585 11.232V22.09l-3.78 6.228H71.86l-3.726-6.28v7.451h-2.395V18.311h2.767l3.993 7.026 4.152-7.026h2.448v11.178l-2.342.053zm5.962-11.232h2.608v4.578h5.642V18.31h2.609v11.178h-2.609V25.07h-5.642v4.418h-2.608V18.311zm25.337 0v11.178h-2.502v-1.437c-.425.532-.958.905-1.596 1.171-.639.266-1.331.373-2.13.373-1.064 0-2.076-.213-2.927-.692a5.275 5.275 0 01-2.023-2.023c-.479-.852-.745-1.863-.745-3.034 0-1.171.266-2.13.745-3.034a5.275 5.275 0 012.023-2.023c.851-.479 1.81-.692 2.927-.692.746 0 1.384.107 2.023.373a5.414 5.414 0 011.597 1.117v-1.277h2.608zm-3.513 8.144c.639-.639.958-1.49.958-2.555 0-1.064-.319-1.916-.958-2.555-.639-.639-1.437-.958-2.395-.958s-1.757.32-2.396.958c-.638.639-.958 1.49-.958 2.555 0 1.065.32 1.916.958 2.555.639.639 1.438.958 2.396.958s1.756-.32 2.395-.958zm15.224-1.81c.372.426.585.959.585 1.597 0 .692-.213 1.278-.692 1.81s-1.118.958-1.916 1.224c-.799.32-1.757.426-2.768.426a10.5 10.5 0 01-2.555-.32c-.852-.212-1.597-.478-2.236-.85l.746-1.97c.532.319 1.171.532 1.863.692.692.16 1.384.266 2.076.266.904 0 1.543-.16 2.075-.426.48-.266.746-.639.746-1.118 0-.426-.213-.745-.586-1.011-.372-.213-.905-.373-1.65-.373h-2.182v-1.756h1.969c.639 0 1.171-.107 1.544-.32.372-.213.532-.532.532-.958 0-.426-.213-.745-.692-.958-.426-.213-1.064-.373-1.863-.373-1.118 0-2.289.266-3.566.799l-.692-1.917c1.49-.692 2.927-1.01 4.471-1.01.958 0 1.81.105 2.555.372.745.266 1.331.638 1.757 1.064.425.48.638 1.012.638 1.597 0 .532-.159 1.011-.479 1.437-.319.426-.798.746-1.384 1.012.746.32 1.331.639 1.704 1.064zm13.946-6.334v11.178h-2.502v-1.437c-.426.48-.958.905-1.544 1.171-.638.266-1.277.426-2.022.426-1.491 0-2.662-.426-3.567-1.224-.851-.852-1.277-2.076-1.277-3.726V18.31h2.608v6.068c0 1.012.213 1.757.692 2.236.479.479 1.118.745 1.97.745.904 0 1.65-.266 2.235-.852.532-.585.852-1.437.852-2.501V18.31h2.555zm13.041 0v11.178h-2.342v-3.353h-2.981l-2.289 3.353h-2.821l2.662-3.726c-.799-.266-1.438-.692-1.864-1.277-.425-.586-.638-1.278-.638-2.13 0-1.277.479-2.288 1.384-2.98.905-.692 2.182-1.065 3.779-1.065h5.11zm-7.559 4.152c0 1.277.799 1.863 2.449 1.863h2.768v-3.78h-2.715c-1.703 0-2.502.64-2.502 1.917zM178 17.46v12.242h-2.289v-10.38h-2.608v-1.916l4.897.053zm-13.041 0v12.242h-1.863l-6.707-8.304v8.304h-2.236V17.46h1.863l6.76 8.304V17.46h2.183zm4.152 1.65a1.545 1.545 0 010 3.087 1.545 1.545 0 01-1.544-1.544c-.053-.851.692-1.543 1.544-1.543zm0-1.65a3.226 3.226 0 00-3.247 3.246 3.226 3.226 0 003.247 3.247 3.227 3.227 0 003.247-3.247c0-1.81-1.491-3.247-3.247-3.247zm2.874 7.664h-5.696v1.704h5.696v-1.704z" fill="#221F1F"/><path d="M125.941 10.007c-.585-.32-1.064-.745-1.384-1.33-.319-.586-.479-1.225-.479-1.97 0-.745.16-1.384.479-1.97.32-.585.799-1.01 1.384-1.33.586-.32 1.278-.48 2.023-.48.745 0 1.437.16 2.023.48.585.32 1.064.745 1.384 1.33.319.586.479 1.225.479 1.97 0 .745-.16 1.384-.479 1.97-.32.585-.799 1.01-1.384 1.33-.586.32-1.278.48-2.023.48-.745.053-1.437-.16-2.023-.48zm3.567-1.597c.426-.426.639-.958.639-1.65s-.213-1.224-.639-1.65c-.426-.426-.958-.639-1.597-.639s-1.171.213-1.544.639c-.426.426-.639.958-.639 1.65s.213 1.224.639 1.65c.426.426.958.639 1.544.639.692 0 1.171-.213 1.597-.639zm4.098-5.376h1.704v2.98h3.726v-2.98h1.703v7.399h-1.703V7.505h-3.726v2.928h-1.704V3.034zm16.182 0v7.399h-1.703V4.524h-2.768l-.053 1.49a23 23 0 01-.266 2.45 3.197 3.197 0 01-.692 1.543c-.32.373-.745.586-1.331.586-.266 0-.586-.054-.958-.16l.106-1.437a.68.68 0 00.32.053c.372 0 .638-.16.798-.426.16-.266.266-.639.32-1.011.053-.373.106-.958.106-1.704l.106-2.82 6.015-.054zm9.475 0v7.399h-1.65v-.958a2.27 2.27 0 01-1.064.798 4 4 0 01-1.384.266c-.692 0-1.384-.16-1.917-.479a3.206 3.206 0 01-1.33-1.33c-.32-.586-.48-1.225-.48-1.97 0-.745.16-1.437.48-1.97a3.206 3.206 0 011.33-1.33 3.941 3.941 0 011.917-.48c.479 0 .904.107 1.33.267.426.16.746.426 1.065.745v-.905l1.703-.053zm-2.342 5.376c.426-.426.639-.958.639-1.65s-.213-1.224-.639-1.65c-.426-.426-.958-.639-1.597-.639s-1.171.213-1.543.639c-.426.426-.639.958-.639 1.65s.213 1.224.639 1.65a2.13 2.13 0 001.543.639c.692 0 1.225-.213 1.597-.639zm11.657-5.376v7.399h-1.65v-.958c-.266.32-.639.585-1.011.745-.426.16-.852.266-1.331.266-1.011 0-1.756-.266-2.342-.798-.586-.533-.852-1.384-.852-2.449V3.034h1.704v3.992c0 .639.159 1.171.426 1.49.319.32.745.48 1.277.48.586 0 1.118-.213 1.437-.586.373-.372.533-.958.533-1.65V3.034h1.809zm2.289 0h1.704v2.98h3.726v-2.98H178v7.399h-1.703V7.505h-3.726v2.928h-1.704V3.034zm-5.908-.904a1.064 1.064 0 100-2.129 1.064 1.064 0 000 2.128z" fill="#73707D"/></g><defs><linearGradient id="paint0_linear" x1="4.684" y1="14.306" x2="28.152" y2="14.306" gradientUnits="userSpaceOnUse"><stop stop-color="#0189F0"/><stop offset="1" stop-color="#0069E6"/></linearGradient><linearGradient id="paint1_linear" x1="0" y1="17.703" x2="31.199" y2="17.703" gradientUnits="userSpaceOnUse"><stop stop-color="#0189F0"/><stop offset="1" stop-color="#0069E6"/></linearGradient><clipPath id="clip0"><path fill="#fff" d="M0 0h178v32.896H0z"/></clipPath></defs></svg>