<svg width="93" height="93" fill="none" xmlns="http://www.w3.org/2000/svg"><circle r="44" transform="matrix(1 0 0 -1 46.5 46.5)" fill="#fff" stroke="#FAFAFA" stroke-width="5"/><path d="M66.523 50.499l-2.254 1.277L33.913 34.27c-.526-.301-.752-.977-.376-1.503.3-.526.977-.752 1.503-.376L66.523 50.5z" fill="url(#paint0_linear)"/><path d="M69.754 44.938L49.842 33.442l-12.248-7.138c-4.809-2.705-10.82.751-10.82 6.236v28.554c0 5.485 5.936 8.866 10.67 6.161l4.208-2.404 8.265-4.734L61.34 53.58 32.41 36.899c-1.953-1.128-2.63-3.682-1.502-5.636 1.127-2.029 3.682-2.705 5.635-1.578l32.912 19.01.225-.15c1.503-.751 1.503-2.855.075-3.607z" fill="url(#paint1_linear)"/><defs><linearGradient id="paint0_linear" x1="33.386" y1="41.99" x2="66.515" y2="41.99" gradientUnits="userSpaceOnUse"><stop stop-color="#0189F0"/><stop offset="1" stop-color="#0069E6"/></linearGradient><linearGradient id="paint1_linear" x1="26.774" y1="46.785" x2="70.816" y2="46.785" gradientUnits="userSpaceOnUse"><stop stop-color="#0189F0"/><stop offset="1" stop-color="#0069E6"/></linearGradient></defs></svg>