<svg width="22" height="22" fill="none" xmlns="http://www.w3.org/2000/svg"><path d="M11 0C4.93 0 0 4.93 0 11c0 6.056 4.93 11 11 11 6.056 0 11-4.93 11-11-.014-6.07-4.944-11-11-11zm0 20.418c-5.2 0-9.433-4.232-9.433-9.432C1.567 5.799 5.8 1.567 11 1.567S20.433 5.799 20.433 11c-.015 5.186-4.247 9.418-9.433 9.418z" fill="#808A9E"/><path d="M11.883 5.543H7.552v8.677H6.81v1.767h.74v1.425h1.94v-1.425h2.108v-1.781H9.475v-1.197h2.18c2.423 0 4.403-1.282 4.403-3.762.015-2.237-1.61-3.704-4.175-3.704zm-.156 5.728H9.475V7.31h2.252c1.453 0 2.38.67 2.38 1.966 0 1.168-.913 1.995-2.38 1.995z" fill="#808A9E"/></svg>