<svg width="23" height="27" fill="none" xmlns="http://www.w3.org/2000/svg"><path d="M21.625 27H3.485a.422.422 0 01-.422-.422V.422A.422.422 0 013.483 0h13.78a.42.42 0 01.298.124l4.361 4.361c.08.079.124.186.124.298v21.795a.422.422 0 01-.422.422z" fill="url(#paint0_linear)"/><path d="M.953 13.9l1.688-.746 1.177 1.807H.953V13.9z" fill="url(#paint1_linear)"/><path d="M21.203 27H3.063a.422.422 0 01-.422-.422V.422A.422.422 0 013.062 0h13.954l4.609 4.609v21.97a.421.421 0 01-.422.421z" fill="url(#paint2_linear)"/><path d="M17.017 0v4.187a.422.422 0 00.422.422h4.186l-2.067-2.49L17.017 0z" fill="url(#paint3_linear)"/><path d="M17.416 22.148H1.7a.747.747 0 01-.747-.746v-6.757h16.463a.747.747 0 01.746.747v6.01a.747.747 0 01-.746.746z" fill="url(#paint4_linear)"/><path d="M2.64 13.154H1.7a.745.745 0 100 1.491h.942v-1.491z" fill="url(#paint5_linear)"/><path d="M4.328 19.843v-2.891a.366.366 0 01.366-.367c.56-.021 1.12-.003 1.678.055a1.02 1.02 0 01.732 1.06 1.047 1.047 0 01-.808 1.09 7.697 7.697 0 01-1.119.052.118.118 0 00-.117.118v.883a.366.366 0 11-.732 0zm.732-2.527v.793a.118.118 0 00.117.118c.289.02.578 0 .861-.057a.494.494 0 00-.098-.947 7.13 7.13 0 00-.763-.025.116.116 0 00-.083.035.118.118 0 00-.034.083zm2.643-.365a.366.366 0 01.366-.366 8.22 8.22 0 011.66.069 1.366 1.366 0 01.894.92c.085.278.125.567.118.857.006.262-.032.522-.111.771a1.322 1.322 0 01-.903.928 8.806 8.806 0 01-1.658.077.366.366 0 01-.366-.365v-2.89zm.732.365v2.164a.118.118 0 00.117.118c.291.016.583.005.872-.034a.626.626 0 00.486-.501c.056-.217.081-.44.075-.664a2.166 2.166 0 00-.075-.645.702.702 0 00-.548-.522 5.95 5.95 0 00-.812-.034.118.118 0 00-.116.118zm2.931 2.527V16.95a.366.366 0 01.366-.366h1.811a.307.307 0 110 .613h-1.326a.119.119 0 00-.109.073.116.116 0 00-.009.045v.622a.116.116 0 00.035.083.118.118 0 00.083.035h1.088a.307.307 0 010 .613h-1.088a.118.118 0 00-.118.117v1.055a.366.366 0 01-.733.002z" fill="#fff"/><defs><linearGradient id="paint0_linear" x1="12.555" y1="-13.495" x2="12.555" y2="-12.412" gradientUnits="userSpaceOnUse"><stop stop-color="#F3F7FF"/><stop offset=".99" stop-color="#B5D1FF"/></linearGradient><linearGradient id="paint1_linear" x1="2.386" y1="12.846" x2="2.386" y2="50.498" gradientUnits="userSpaceOnUse"><stop stop-color="#FF5252"/><stop offset="1" stop-color="#D50000"/></linearGradient><linearGradient id="paint2_linear" x1="638.617" y1="-146.583" x2="638.617" y2="4157.38" gradientUnits="userSpaceOnUse"><stop stop-color="#F3F7FF"/><stop offset=".99" stop-color="#B5D1FF"/></linearGradient><linearGradient id="paint3_linear" x1="249.924" y1="-107.974" x2="249.924" y2="-18.43" gradientUnits="userSpaceOnUse"><stop stop-color="#F3F7FF"/><stop offset=".99" stop-color="#B5D1FF"/></linearGradient><linearGradient id="paint4_linear" x1="472.414" y1="258.643" x2="472.414" y2="652.079" gradientUnits="userSpaceOnUse"><stop stop-color="#FF5252"/><stop offset="1" stop-color="#D50000"/></linearGradient><linearGradient id="paint5_linear" x1="16.141" y1="37.494" x2="16.141" y2="78.265" gradientUnits="userSpaceOnUse"><stop stop-color="#FF5252"/><stop offset="1" stop-color="#D50000"/></linearGradient></defs></svg>