<svg width="21" height="22" fill="none" xmlns="http://www.w3.org/2000/svg"><path d="M20.636 13.41l-1.984-1.58A8.09 8.09 0 0018.7 11c0-.3-.021-.589-.047-.83l1.984-1.58c.367-.297.468-.826.236-1.264l-2.06-3.64a.945.945 0 00-1.192-.438l-2.337.959a7.685 7.685 0 00-1.403-.83L13.522.842A.959.959 0 0012.57 0H8.44a.959.959 0 00-.952.838l-.358 2.54c-.472.214-.935.49-1.403.829L3.38 3.248a.969.969 0 00-1.183.43L.133 7.322a.996.996 0 00.232 1.267l1.983 1.582a8.72 8.72 0 00-.046.829c0 .254.017.52.046.83L.365 13.414a1.005 1.005 0 00-.232 1.263l2.06 3.635a.947.947 0 001.191.439l2.338-.959c.447.331.918.606 1.403.83l.353 2.53A.962.962 0 008.43 22h4.132c.484 0 .893-.36.952-.838l.358-2.54c.472-.218.93-.49 1.402-.833l2.347.963a.937.937 0 001.183-.43l2.072-3.657a.999.999 0 00-.24-1.254zm-10.133 1.255C8.518 14.665 6.91 13.02 6.91 11s1.613-3.665 3.592-3.665c1.98 0 3.593 1.645 3.593 3.665s-1.609 3.665-3.593 3.665z" fill="#808A9E"/></svg>