<svg width="15" height="18" fill="none" xmlns="http://www.w3.org/2000/svg"><path d="M15 1.604V2.68c0 .298-.24.538-.537.538H.537A.536.536 0 010 2.679V1.604c0-.29.24-.529.537-.529h4.02L4.87.447A.868.868 0 015.582 0H9.41a.88.88 0 01.72.447l.314.628h4.018c.298 0 .538.24.538.53zM1.075 4.284h12.858v11.253c0 .885-.72 1.605-1.604 1.605H2.68c-.885 0-1.604-.72-1.604-1.604V4.282zm2.68 10.178a.536.536 0 101.074 0v-7.5a.536.536 0 10-1.075 0v7.5zm3.208 0a.536.536 0 101.074 0v-7.5a.536.536 0 10-1.074 0v7.5zm3.216 0a.536.536 0 101.075 0v-7.5a.536.536 0 10-1.075 0v7.5z" fill="#ED6666"/></svg>