<svg width="23" height="27" fill="none" xmlns="http://www.w3.org/2000/svg"><path d="M19.094 27H.954a.422.422 0 01-.423-.422V.422A.422.422 0 01.953 0h13.78c.111 0 .219.045.298.124l4.361 4.361a.42.42 0 01.124.298v21.795a.422.422 0 01-.422.422z" fill="url(#paint0_linear)"/><path d="M18.672 27H.532a.422.422 0 01-.423-.422V.422A.422.422 0 01.531 0h13.954l4.609 4.609v21.97a.422.422 0 01-.422.421z" fill="url(#paint1_linear)"/><path d="M14.485 0v4.187a.422.422 0 00.422.422h4.187l-2.067-2.49L14.485 0z" fill="url(#paint2_linear)"/><path d="M13.618 7.058H3.243a.203.203 0 000 .406h10.375a.203.203 0 000-.406z" fill="url(#paint3_linear)"/><path d="M15.96 8.96H3.242a.203.203 0 000 .407h12.716a.203.203 0 000-.406z" fill="url(#paint4_linear)"/><path d="M15.96 10.864H3.242a.203.203 0 100 .406h12.716a.203.203 0 000-.406z" fill="url(#paint5_linear)"/><path d="M15.96 12.767H3.242a.203.203 0 000 .407h12.716a.203.203 0 100-.407z" fill="url(#paint6_linear)"/><path d="M15.96 14.67H3.242a.203.203 0 000 .407h12.716a.203.203 0 100-.407z" fill="url(#paint7_linear)"/><path d="M15.96 16.573H3.242a.203.203 0 100 .407h12.716a.203.203 0 100-.407z" fill="url(#paint8_linear)"/><path d="M15.96 18.476H3.242a.203.203 0 000 .407h12.716a.203.203 0 100-.407z" fill="url(#paint9_linear)"/><path d="M9.398 20.38H3.243a.203.203 0 000 .406h6.155a.203.203 0 100-.406z" fill="url(#paint10_linear)"/><path d="M22.722 8.37l-.94-.94a.575.575 0 00-.813 0l-.944.943 1.754 1.752.943-.942a.575.575 0 000-.814z" fill="url(#paint11_linear)"/><path d="M12.668 19.238l-2.911 1.271a.085.085 0 01-.052.009.084.084 0 01-.062-.122l1.272-2.91L20.201 8.2l1.753 1.753-9.286 9.285z" fill="url(#paint12_linear)"/><path d="M10.912 17.484L20.196 8.2l1.753 1.753-9.284 9.284-1.753-1.753z" fill="url(#paint13_linear)"/><path d="M10.492 20.188l-.528-.529-.35.802a.058.058 0 00.075.076l.803-.349z" fill="url(#paint14_linear)"/><defs><linearGradient id="paint0_linear" x1="10.023" y1="-10.84" x2="10.023" y2="-10.1" gradientUnits="userSpaceOnUse"><stop stop-color="#F3F7FF"/><stop offset=".99" stop-color="#B5D1FF"/></linearGradient><linearGradient id="paint1_linear" x1="522.18" y1="-146.583" x2="522.18" y2="4157.38" gradientUnits="userSpaceOnUse"><stop stop-color="#F3F7FF"/><stop offset=".99" stop-color="#B5D1FF"/></linearGradient><linearGradient id="paint2_linear" x1="219.742" y1="-107.974" x2="219.742" y2="-18.43" gradientUnits="userSpaceOnUse"><stop stop-color="#F3F7FF"/><stop offset=".99" stop-color="#B5D1FF"/></linearGradient><linearGradient id="paint3_linear" x1="269.621" y1="2.321" x2="269.621" y2="4.5" gradientUnits="userSpaceOnUse"><stop stop-color="#F3F7FF"/><stop offset=".99" stop-color="#B5D1FF"/></linearGradient><linearGradient id="paint4_linear" x1="363.929" y1="4.224" x2="363.929" y2="6.403" gradientUnits="userSpaceOnUse"><stop stop-color="#F3F7FF"/><stop offset=".99" stop-color="#B5D1FF"/></linearGradient><linearGradient id="paint5_linear" x1="363.929" y1="6.127" x2="363.929" y2="8.307" gradientUnits="userSpaceOnUse"><stop stop-color="#F3F7FF"/><stop offset=".99" stop-color="#B5D1FF"/></linearGradient><linearGradient id="paint6_linear" x1="363.929" y1="8.03" x2="363.929" y2="10.21" gradientUnits="userSpaceOnUse"><stop stop-color="#F3F7FF"/><stop offset=".99" stop-color="#B5D1FF"/></linearGradient><linearGradient id="paint7_linear" x1="363.929" y1="9.933" x2="363.929" y2="12.113" gradientUnits="userSpaceOnUse"><stop stop-color="#F3F7FF"/><stop offset=".99" stop-color="#B5D1FF"/></linearGradient><linearGradient id="paint8_linear" x1="363.929" y1="11.836" x2="363.929" y2="14.016" gradientUnits="userSpaceOnUse"><stop stop-color="#F3F7FF"/><stop offset=".99" stop-color="#B5D1FF"/></linearGradient><linearGradient id="paint9_linear" x1="363.929" y1="13.739" x2="363.929" y2="15.919" gradientUnits="userSpaceOnUse"><stop stop-color="#F3F7FF"/><stop offset=".99" stop-color="#B5D1FF"/></linearGradient><linearGradient id="paint10_linear" x1="132.459" y1="15.643" x2="132.459" y2="17.822" gradientUnits="userSpaceOnUse"><stop stop-color="#F3F7FF"/><stop offset=".99" stop-color="#B5D1FF"/></linearGradient><linearGradient id="paint11_linear" x1="18.341" y1="5.313" x2="25.035" y2="12.075" gradientUnits="userSpaceOnUse"><stop stop-color="#048AC4"/><stop offset="1" stop-color="#35489B"/></linearGradient><linearGradient id="paint12_linear" x1="486.941" y1="409.999" x2="835.72" y2="758.789" gradientUnits="userSpaceOnUse"><stop stop-color="#F3F7FF"/><stop offset=".99" stop-color="#B5D1FF"/></linearGradient><linearGradient id="paint13_linear" x1="13.118" y1="10.373" x2="19.976" y2="17.301" gradientUnits="userSpaceOnUse"><stop stop-color="#FDC830"/><stop offset="1" stop-color="#F37335"/></linearGradient><linearGradient id="paint14_linear" x1="6.731" y1="6.255" x2="12.709" y2="6.286" gradientUnits="userSpaceOnUse"><stop stop-color="#048AC4"/><stop offset="1" stop-color="#35489B"/></linearGradient></defs></svg>